<svg width="53" height="59" viewBox="0 0 53 59" fill="none" xmlns="http://www.w3.org/2000/svg">
<path d="M30.4571 11.5144L45.1645 27.7526C45.3165 27.9202 45.4373 28.1195 45.5202 28.3391C45.6031 28.5587 45.6464 28.7944 45.6476 29.0325C45.6488 29.2707 45.6079 29.5068 45.5273 29.7272C45.4466 29.9477 45.3278 30.1482 45.1775 30.3173L30.6353 46.7037C30.3321 47.0453 29.9196 47.2385 29.4884 47.2406C29.0571 47.2428 28.6426 47.0539 28.336 46.7153C28.0294 46.3768 27.8557 45.9164 27.8533 45.4354C27.8508 44.9544 28.0198 44.4923 28.323 44.1506L40.1082 30.8731L8.28099 31.0344C7.85002 31.0365 7.43573 30.8477 7.12927 30.5093C6.8228 30.1709 6.64926 29.7108 6.64683 29.2301C6.64439 28.7494 6.81326 28.2875 7.11628 27.9461C7.4193 27.6046 7.83165 27.4116 8.26263 27.4094L40.0899 27.2482L28.1707 14.0907C27.8641 13.7522 27.6905 13.2918 27.688 12.8108C27.6856 12.3298 27.8545 11.8677 28.1577 11.5261C28.4609 11.1844 28.8735 10.9913 29.3047 10.9891C29.7359 10.9869 30.1504 11.1759 30.4571 11.5144Z" fill="white"/>
</svg>
