<svg width="109" height="94" viewBox="0 0 109 94" fill="none" xmlns="http://www.w3.org/2000/svg">
<path d="M70.3959 54.8333H66.8079L65.5363 53.7758C70.1413 49.1701 72.6721 43.2898 72.6667 37.2083C72.6667 32.1731 70.9353 27.251 67.6915 23.0644C64.4477 18.8778 59.8372 15.6148 54.443 13.6879C49.0488 11.761 43.1131 11.2569 37.3866 12.2392C31.6601 13.2215 26.4 15.6462 22.2715 19.2066C18.1429 22.767 15.3313 27.3032 14.1922 32.2417C13.0532 37.1801 13.6378 42.2989 15.8722 46.9508C18.1065 51.6027 21.8903 55.5788 26.745 58.3762C31.5996 61.1736 37.3072 62.6667 43.1458 62.6667C50.4579 62.6667 57.1796 60.3558 62.3571 56.5175L63.5833 57.6142V60.7083L86.2917 80.2525L93.0588 74.4167L70.3959 54.8333ZM43.1458 54.8333C31.8371 54.8333 22.7083 46.9608 22.7083 37.2083C22.7083 27.4558 31.8371 19.5833 43.1458 19.5833C54.4546 19.5833 63.5833 27.4558 63.5833 37.2083C63.5833 46.9608 54.4546 54.8333 43.1458 54.8333Z" fill="black"/>
</svg>
