<svg width="63" height="61" viewBox="0 0 63 61" fill="none" xmlns="http://www.w3.org/2000/svg">
<path d="M58.9575 15.25C56.9362 16.1396 54.7575 16.7242 52.5 17.0038C54.81 15.6567 56.595 13.5217 57.435 10.9546C55.2562 12.2254 52.8412 13.115 50.295 13.6233C48.2212 11.4375 45.3075 10.1667 42 10.1667C35.8312 10.1667 30.7912 15.0467 30.7912 21.0704C30.7912 21.9346 30.8962 22.7733 31.08 23.5613C21.735 23.1038 13.4137 18.7575 7.87498 12.1746C6.90373 13.7758 6.35248 15.6567 6.35248 17.6392C6.35248 21.4263 8.32123 24.7813 11.3662 26.6875C9.50248 26.6875 7.76998 26.1792 6.24748 25.4167V25.4929C6.24748 30.7796 10.1325 35.2021 15.2775 36.1933C13.6259 36.6329 11.8913 36.6938 10.2112 36.3713C10.9242 38.538 12.3205 40.4339 14.2039 41.7925C16.0873 43.151 18.363 43.904 20.7112 43.9454C16.7309 46.9967 11.7968 48.646 6.71998 48.6221C5.82748 48.6221 4.93498 48.5713 4.04248 48.4696C9.02998 51.5704 14.9625 53.375 21.315 53.375C42 53.375 53.3662 36.7525 53.3662 22.3413C53.3662 21.8583 53.3662 21.4008 53.34 20.9179C55.545 19.3929 57.435 17.4613 58.9575 15.25Z" fill="white"/>
</svg>
