<svg width="56" height="53" viewBox="0 0 56 53" fill="none" xmlns="http://www.w3.org/2000/svg">
<path fill-rule="evenodd" clip-rule="evenodd" d="M29.1901 19.4245V23.172C30.0193 21.9766 31.1622 21.0054 32.5071 20.3536C33.8519 19.7017 35.3525 19.3914 36.8621 19.4532C44.9237 19.4532 46.6667 24.2232 46.6667 30.4286V43.0625H39.2001V31.8618C39.2001 29.1898 38.6307 25.7536 34.2347 25.7536C29.9717 25.7536 29.2437 28.662 29.2437 31.6631V43.0625H21.8004V19.4245H29.1901ZM16.8001 13.4841C16.7991 14.1841 16.5799 14.8683 16.1698 15.4509C15.7597 16.0335 15.177 16.4886 14.4947 16.759C13.8128 17.0273 13.0619 17.0975 12.3376 16.9606C11.6134 16.8238 10.9486 16.4861 10.4277 15.9905C9.90592 15.4947 9.55066 14.8639 9.40665 14.1774C9.26263 13.491 9.33627 12.7796 9.61832 12.1326C9.90037 11.4857 10.3782 10.9321 10.9918 10.5416C11.6054 10.151 12.3273 9.94082 13.0667 9.9375C13.5582 9.9375 14.0448 10.0293 14.4987 10.2077C14.9525 10.3861 15.3647 10.6476 15.7116 10.9771C16.0584 11.3066 16.3331 11.6977 16.5199 12.1279C16.7067 12.5581 16.8019 13.019 16.8001 13.4841Z" fill="white"/>
<path d="M16.8 19.4532H9.33337V43.0625H16.8V19.4532Z" fill="white"/>
</svg>
