<svg width="72" height="53" viewBox="0 0 72 53" fill="none" xmlns="http://www.w3.org/2000/svg">
<path d="M23.4 4.41667H48.6C58.2 4.41667 66 10.1583 66 17.225V35.775C66 39.172 64.1668 42.4298 60.9037 44.8319C57.6405 47.2339 53.2148 48.5833 48.6 48.5833H23.4C13.8 48.5833 6 42.8417 6 35.775V17.225C6 13.828 7.83321 10.5702 11.0963 8.16815C14.3595 5.76612 18.7852 4.41667 23.4 4.41667ZM22.8 8.83334C19.9357 8.83334 17.1886 9.67093 15.1632 11.1618C13.1379 12.6528 12 14.6749 12 16.7833V36.2167C12 40.6113 16.83 44.1667 22.8 44.1667H49.2C52.0643 44.1667 54.8114 43.3291 56.8368 41.8382C58.8621 40.3473 60 38.3251 60 36.2167V16.7833C60 12.3888 55.17 8.83334 49.2 8.83334H22.8ZM51.75 12.1458C52.7446 12.1458 53.6984 12.4367 54.4016 12.9543C55.1049 13.472 55.5 14.1741 55.5 14.9063C55.5 15.6384 55.1049 16.3405 54.4016 16.8582C53.6984 17.3758 52.7446 17.6667 51.75 17.6667C50.7554 17.6667 49.8016 17.3758 49.0983 16.8582C48.3951 16.3405 48 15.6384 48 14.9063C48 14.1741 48.3951 13.472 49.0983 12.9543C49.8016 12.4367 50.7554 12.1458 51.75 12.1458ZM36 15.4583C39.9782 15.4583 43.7936 16.6217 46.6066 18.6924C49.4196 20.7631 51 23.5716 51 26.5C51 29.4284 49.4196 32.2369 46.6066 34.3076C43.7936 36.3784 39.9782 37.5417 36 37.5417C32.0218 37.5417 28.2064 36.3784 25.3934 34.3076C22.5804 32.2369 21 29.4284 21 26.5C21 23.5716 22.5804 20.7631 25.3934 18.6924C28.2064 16.6217 32.0218 15.4583 36 15.4583ZM36 19.875C33.613 19.875 31.3239 20.573 29.636 21.8154C27.9482 23.0579 27 24.7429 27 26.5C27 28.2571 27.9482 29.9422 29.636 31.1846C31.3239 32.427 33.613 33.125 36 33.125C38.3869 33.125 40.6761 32.427 42.364 31.1846C44.0518 29.9422 45 28.2571 45 26.5C45 24.7429 44.0518 23.0579 42.364 21.8154C40.6761 20.573 38.3869 19.875 36 19.875Z" fill="white"/>
</svg>
